<svg width="153" height="103" viewBox="0 0 153 103" fill="none" xmlns="http://www.w3.org/2000/svg">
<path d="M31.3594 15.875V24.9688H26.1094L25.8281 21.1484H19.5469V45.1953L23.2031 45.8984V50H9.04688V45.8984L12.7031 45.1953V21.1484H6.44531L6.16406 24.9688H0.9375V15.875H31.3594ZM64.1484 33.1953C64.1484 38.1953 62.7188 42.3281 59.8594 45.5938C57 48.8594 53.2578 50.4922 48.6328 50.4922C44.0234 50.4922 40.2969 48.8594 37.4531 45.5938C34.625 42.3281 33.2109 38.1953 33.2109 33.1953V32.6797C33.2109 27.7109 34.625 23.5859 37.4531 20.3047C40.2812 17.0234 44 15.3828 48.6094 15.3828C53.2344 15.3828 56.9766 17.0234 59.8359 20.3047C62.7109 23.5859 64.1484 27.7109 64.1484 32.6797V33.1953ZM57.3281 32.6328C57.3281 29.1016 56.5938 26.2344 55.125 24.0312C53.6562 21.8281 51.4844 20.7266 48.6094 20.7266C45.7344 20.7266 43.5859 21.8203 42.1641 24.0078C40.7578 26.1953 40.0547 29.0703 40.0547 32.6328V33.1953C40.0547 36.7891 40.7656 39.6875 42.1875 41.8906C43.625 44.0781 45.7734 45.1719 48.6328 45.1719C51.5234 45.1719 53.6953 44.0781 55.1484 41.8906C56.6016 39.6875 57.3281 36.7891 57.3281 33.1953V32.6328ZM81.8672 38.0469H68.6484V32.7734H81.8672V38.0469ZM101.367 15.875C105.539 15.875 108.977 17.2109 111.68 19.8828C114.383 22.5391 115.734 25.9531 115.734 30.125V35.7734C115.734 39.9609 114.383 43.3828 111.68 46.0391C108.977 48.6797 105.539 50 101.367 50H86.0156V45.8984L89.6484 45.1953V20.7031L86.0156 20V15.875H89.6484H101.367ZM96.4922 21.1484V44.75H101.016C103.469 44.75 105.391 43.9219 106.781 42.2656C108.172 40.6094 108.867 38.4453 108.867 35.7734V30.0781C108.867 27.4375 108.172 25.2891 106.781 23.6328C105.391 21.9766 103.469 21.1484 101.016 21.1484H96.4922ZM150.305 33.1953C150.305 38.1953 148.875 42.3281 146.016 45.5938C143.156 48.8594 139.414 50.4922 134.789 50.4922C130.18 50.4922 126.453 48.8594 123.609 45.5938C120.781 42.3281 119.367 38.1953 119.367 33.1953V32.6797C119.367 27.7109 120.781 23.5859 123.609 20.3047C126.438 17.0234 130.156 15.3828 134.766 15.3828C139.391 15.3828 143.133 17.0234 145.992 20.3047C148.867 23.5859 150.305 27.7109 150.305 32.6797V33.1953ZM143.484 32.6328C143.484 29.1016 142.75 26.2344 141.281 24.0312C139.812 21.8281 137.641 20.7266 134.766 20.7266C131.891 20.7266 129.742 21.8203 128.32 24.0078C126.914 26.1953 126.211 29.0703 126.211 32.6328V33.1953C126.211 36.7891 126.922 39.6875 128.344 41.8906C129.781 44.0781 131.93 45.1719 134.789 45.1719C137.68 45.1719 139.852 44.0781 141.305 41.8906C142.758 39.6875 143.484 36.7891 143.484 33.1953V32.6328Z" fill="white"/>
<path d="M55.3867 92V89.5391L58.5703 88.9922V66.5898L55.3867 66.043V63.5625H58.5703H62.418H65.6016V66.043L62.418 66.5898V88.9922H72.3008L72.5938 85.7305H75.875V92H55.3867ZM87.9758 89.5391L91.1594 88.9922V73.8945L87.9758 73.3477V70.8672H95.007V88.9922L98.1906 89.5391V92H87.9758V89.5391ZM95.007 65.457H91.1594V61.5312H95.007V65.457ZM126.112 77.5078H123.221L122.596 74.9688C122.127 74.526 121.535 74.1745 120.819 73.9141C120.116 73.6406 119.315 73.5039 118.416 73.5039C117.049 73.5039 116.034 73.8034 115.37 74.4023C114.705 75.0013 114.373 75.724 114.373 76.5703C114.373 77.4036 114.666 78.0612 115.252 78.543C115.838 79.0247 117.03 79.4544 118.827 79.832C121.496 80.4049 123.482 81.1862 124.784 82.1758C126.086 83.1523 126.737 84.4674 126.737 86.1211C126.737 87.9961 125.975 89.513 124.452 90.6719C122.941 91.8307 120.962 92.4102 118.514 92.4102C116.912 92.4102 115.474 92.2279 114.198 91.8633C112.922 91.4857 111.782 90.9453 110.78 90.2422L110.76 85.418H113.651L114.373 88.25C114.816 88.6536 115.415 88.9466 116.17 89.1289C116.939 89.3112 117.72 89.4023 118.514 89.4023C119.881 89.4023 120.949 89.1289 121.717 88.582C122.498 88.0221 122.889 87.293 122.889 86.3945C122.889 85.5482 122.564 84.8516 121.912 84.3047C121.274 83.7578 120.057 83.2826 118.26 82.8789C115.695 82.319 113.761 81.5573 112.459 80.5938C111.157 79.6302 110.506 78.3281 110.506 76.6875C110.506 74.9688 111.235 73.5039 112.694 72.293C114.165 71.082 116.073 70.4766 118.416 70.4766C120.018 70.4766 121.457 70.6849 122.733 71.1016C124.009 71.5182 125.07 72.0977 125.916 72.8398L126.112 77.5078ZM145.849 65.7695V70.8672H149.853V73.7188H145.849V86.5508C145.849 87.5404 146.051 88.237 146.455 88.6406C146.871 89.0443 147.418 89.2461 148.095 89.2461C148.434 89.2461 148.811 89.2201 149.228 89.168C149.658 89.1029 150.016 89.0378 150.302 88.9727L150.83 91.6094C150.465 91.8438 149.931 92.0326 149.228 92.1758C148.525 92.332 147.822 92.4102 147.119 92.4102C145.556 92.4102 144.313 91.9414 143.388 91.0039C142.464 90.0534 142.002 88.569 142.002 86.5508V73.7188H138.662V70.8672H142.002V65.7695H145.849Z" fill="white"/>
</svg>
